<svg width="147" height="46" viewBox="0 0 147 46" fill="none" xmlns="http://www.w3.org/2000/svg">
<rect width="45.613" height="45.613" rx="12.492" fill="#743AF0" fill-opacity="0.35"/>
<rect x="5.25" y="6.12503" width="34.6034" height="34.6034" rx="8.17899" fill="#743AF0"/>
<path d="M14.875 22.7701L20.0948 27.9761C20.1303 28.0115 20.1878 28.0118 20.2237 27.9767L30.9142 17.5" stroke="white" stroke-width="3.02453" stroke-linecap="round"/>
<path d="M63.3706 30.769C61.9537 29.1828 61.2452 27.1103 61.2452 24.5513C61.2452 21.9923 61.9537 19.9303 63.3706 18.3653C64.8087 16.7791 66.5852 15.9861 68.7001 15.9861C70.117 15.9861 71.3965 16.409 72.5386 17.255C73.025 17.6568 73.4374 18.0798 73.7758 18.5239H73.9344V10.4346H78.3756V32.6406H73.9344V30.5786H73.7758C73.4374 31.0228 73.025 31.4457 72.5386 31.8476C71.3965 32.6935 70.117 33.1165 68.7001 33.1165C66.5852 33.1165 64.8087 32.334 63.3706 30.769ZM66.9553 21.0617C66.2151 21.9077 65.845 23.0709 65.845 24.5513C65.845 26.0317 66.2151 27.1949 66.9553 28.0408C67.6955 28.8867 68.6472 29.3097 69.8104 29.3097C71.037 29.3097 72.031 28.8973 72.7923 28.0725C73.5537 27.2266 73.9344 26.0528 73.9344 24.5513C73.9344 23.0497 73.5537 21.8865 72.7923 21.0617C72.031 20.2158 71.037 19.7928 69.8104 19.7928C68.6472 19.7928 67.6955 20.2158 66.9553 21.0617ZM82.341 30.6421C80.6491 28.9713 79.8031 26.9411 79.8031 24.5513C79.8031 22.1615 80.6491 20.1418 82.341 18.4922C84.0328 16.8214 86.1477 15.9861 88.6855 15.9861C91.2022 15.9861 93.3065 16.8214 94.9984 18.4922C96.7115 20.1418 97.568 22.1615 97.568 24.5513C97.568 26.9411 96.7115 28.9713 94.9984 30.6421C93.3065 32.2917 91.2022 33.1165 88.6855 33.1165C86.1477 33.1165 84.0328 32.2917 82.341 30.6421ZM85.6401 21.1252C84.8153 22.0134 84.4029 23.1555 84.4029 24.5513C84.4029 25.9471 84.8153 27.0891 85.6401 27.9774C86.4649 28.8656 87.4801 29.3097 88.6855 29.3097C89.891 29.3097 90.9062 28.8656 91.7309 27.9774C92.5557 27.0891 92.9681 25.9471 92.9681 24.5513C92.9681 23.1555 92.5557 22.0134 91.7309 21.1252C90.9062 20.237 89.891 19.7928 88.6855 19.7928C87.4801 19.7928 86.4649 20.237 85.6401 21.1252ZM99.0067 32.6406V10.4346H103.448V28.8339H107.096V32.6406H99.0067ZM108.47 13.702C107.984 13.2156 107.74 12.6552 107.74 12.0207C107.74 11.3862 107.984 10.8364 108.47 10.3711C108.978 9.88469 109.58 9.64148 110.278 9.64148C110.976 9.64148 111.568 9.88469 112.055 10.3711C112.562 10.8364 112.816 11.3862 112.816 12.0207C112.816 12.6552 112.562 13.2156 112.055 13.702C111.568 14.1673 110.976 14.3999 110.278 14.3999C109.58 14.3999 108.978 14.1673 108.47 13.702ZM108.058 32.6406V16.4619H112.499V32.6406H108.058ZM113.768 27.4063H118.368C118.516 27.787 118.748 28.136 119.065 28.4532C119.742 29.13 120.673 29.4683 121.857 29.4683C123.655 29.4683 124.554 28.9396 124.554 27.8822C124.554 27.713 124.511 27.565 124.427 27.4381C124.342 27.29 124.194 27.1631 123.983 27.0574C123.771 26.9305 123.57 26.8248 123.38 26.7402C123.189 26.6556 122.904 26.571 122.523 26.4864C122.164 26.3806 121.868 26.3066 121.635 26.2643C121.424 26.222 121.075 26.148 120.588 26.0423C120.123 25.9365 119.785 25.8625 119.573 25.8202C116.232 25.1011 114.561 23.4621 114.561 20.9031C114.561 19.5496 115.164 18.397 116.369 17.4453C117.596 16.4725 119.266 15.9861 121.381 15.9861C124.215 15.9861 126.341 16.8637 127.758 18.6191C128.371 19.3804 128.783 20.2475 128.995 21.2204H124.554C124.406 20.9031 124.215 20.6388 123.983 20.4273C123.327 19.8986 122.46 19.6342 121.381 19.6342C120.62 19.6342 120.059 19.7611 119.7 20.0149C119.34 20.2475 119.161 20.5436 119.161 20.9031C119.161 21.03 119.182 21.1569 119.224 21.2838C119.288 21.3896 119.383 21.4953 119.51 21.601C119.636 21.6856 119.763 21.7702 119.89 21.8548C120.017 21.9183 120.197 21.9923 120.43 22.0769C120.662 22.1403 120.863 22.2038 121.032 22.2672C121.223 22.3307 121.466 22.3941 121.762 22.4576C122.058 22.521 122.312 22.5739 122.523 22.6162C122.735 22.6585 123.01 22.7219 123.348 22.8065C123.686 22.87 123.961 22.9228 124.173 22.9651C127.493 23.7053 129.153 25.3443 129.153 27.8822C129.153 29.2991 128.498 30.5258 127.187 31.562C125.875 32.5983 124.099 33.1165 121.857 33.1165C118.854 33.1165 116.633 32.1648 115.195 30.2614C114.54 29.3943 114.064 28.4426 113.768 27.4063ZM129.321 20.2687V16.4619H131.383V12.9724H135.824V16.4619H140.392V20.2687H135.824V28.8339H140.582V32.6406H131.383V20.2687H129.321Z" fill="white"/>
<rect x="141.93" y="28.5703" width="4.60936" height="4.14842" rx="0.921872" fill="#743AF0"/>
</svg>
