<svg width="150" height="46" viewBox="0 0 150 46" fill="none" xmlns="http://www.w3.org/2000/svg">
<path d="M49.3822 28.089H54.3927C54.5539 28.5037 54.8073 28.8838 55.1529 29.2293C55.8901 29.9665 56.9037 30.3351 58.1937 30.3351C60.1518 30.3351 61.1309 29.7592 61.1309 28.6073C61.1309 28.423 61.0848 28.2618 60.9927 28.1236C60.9005 27.9623 60.7393 27.8241 60.5089 27.7089C60.2785 27.5707 60.0597 27.4555 59.8524 27.3634C59.645 27.2712 59.334 27.1791 58.9194 27.0869C58.5278 26.9717 58.2052 26.8911 57.9518 26.845C57.7215 26.799 57.3414 26.7183 56.8115 26.6032C56.3047 26.488 55.9361 26.4073 55.7058 26.3613C52.066 25.578 50.2461 23.7927 50.2461 21.0052C50.2461 19.5309 50.9026 18.2754 52.2157 17.2388C53.5518 16.1791 55.3717 15.6492 57.6754 15.6492C60.7623 15.6492 63.0775 16.6052 64.6209 18.5173C65.289 19.3466 65.7382 20.2911 65.9686 21.3508H61.1309C60.9696 21.0052 60.7623 20.7173 60.5089 20.4869C59.7948 19.911 58.8503 19.623 57.6754 19.623C56.8461 19.623 56.2356 19.7613 55.844 20.0377C55.4524 20.2911 55.2565 20.6136 55.2565 21.0052C55.2565 21.1435 55.2796 21.2817 55.3257 21.4199C55.3948 21.5351 55.4984 21.6503 55.6367 21.7655C55.7749 21.8576 55.9131 21.9498 56.0513 22.0419C56.1895 22.111 56.3853 22.1916 56.6387 22.2838C56.8921 22.3529 57.111 22.422 57.2953 22.4911C57.5026 22.5602 57.7675 22.6293 58.0901 22.6984C58.4126 22.7676 58.689 22.8251 58.9194 22.8712C59.1497 22.9173 59.4492 22.9864 59.8178 23.0785C60.1864 23.1477 60.4859 23.2052 60.7162 23.2513C64.333 24.0576 66.1414 25.8429 66.1414 28.6073C66.1414 30.1508 65.4272 31.4869 63.999 32.6157C62.5707 33.7445 60.6356 34.3089 58.1937 34.3089C54.9225 34.3089 52.5037 33.2723 50.9372 31.199C50.223 30.2545 49.7047 29.2178 49.3822 28.089ZM67.3602 40.356V16.1676H72.1979V18.4136H72.3707C72.7393 17.9299 73.1885 17.4691 73.7184 17.0314C74.9623 16.11 76.356 15.6492 77.8995 15.6492C80.2032 15.6492 82.1267 16.5131 83.6702 18.2408C85.2367 19.9456 86.0199 22.1916 86.0199 24.9791C86.0199 27.7665 85.2367 30.0241 83.6702 31.7518C82.1267 33.4566 80.2032 34.3089 77.8995 34.3089C76.356 34.3089 74.9623 33.8482 73.7184 32.9267C73.1885 32.489 72.7393 32.0283 72.3707 31.5445H72.1979V40.356H67.3602ZM73.4419 21.178C72.6126 22.0765 72.1979 23.3435 72.1979 24.9791C72.1979 26.6147 72.6126 27.8932 73.4419 28.8147C74.2712 29.7131 75.354 30.1623 76.6901 30.1623C77.9571 30.1623 78.9937 29.7016 79.8 28.7801C80.6063 27.8587 81.0095 26.5916 81.0095 24.9791C81.0095 23.3665 80.6063 22.0995 79.8 21.178C78.9937 20.2566 77.9571 19.7958 76.6901 19.7958C75.354 19.7958 74.2712 20.2566 73.4419 21.178ZM88.8534 31.7518C87.31 30.0241 86.5382 27.7665 86.5382 24.9791C86.5382 22.1916 87.31 19.9456 88.8534 18.2408C90.4199 16.5131 92.355 15.6492 94.6587 15.6492C96.2021 15.6492 97.5958 16.11 98.8398 17.0314C99.3697 17.4691 99.8189 17.9299 100.187 18.4136H100.36V16.1676H105.198V33.7906H100.36V31.5445H100.187C99.8189 32.0283 99.3697 32.489 98.8398 32.9267C97.5958 33.8482 96.2021 34.3089 94.6587 34.3089C92.355 34.3089 90.4199 33.4566 88.8534 31.7518ZM92.7581 21.178C91.9519 22.0995 91.5487 23.3665 91.5487 24.9791C91.5487 26.5916 91.9519 27.8587 92.7581 28.7801C93.5644 29.7016 94.6011 30.1623 95.8681 30.1623C97.2042 30.1623 98.2869 29.7131 99.1163 28.8147C99.9456 27.8932 100.36 26.6147 100.36 24.9791C100.36 23.3435 99.9456 22.0765 99.1163 21.178C98.2869 20.2566 97.2042 19.7958 95.8681 19.7958C94.6011 19.7958 93.5644 20.2566 92.7581 21.178ZM109.137 31.6136C107.317 29.7937 106.407 27.5822 106.407 24.9791C106.407 22.3759 107.317 20.1759 109.137 18.3791C110.98 16.5592 113.238 15.6492 115.91 15.6492C119.112 15.6492 121.554 16.8011 123.236 19.1047C123.996 20.0953 124.549 21.2471 124.894 22.5602H119.884C119.676 22.0534 119.4 21.5927 119.054 21.178C118.179 20.2566 117.131 19.7958 115.91 19.7958C114.689 19.7958 113.629 20.2796 112.731 21.2471C111.856 22.2147 111.418 23.4587 111.418 24.9791C111.418 26.4995 111.856 27.7435 112.731 28.711C113.629 29.6785 114.689 30.1623 115.91 30.1623C117.131 30.1623 118.179 29.7016 119.054 28.7801C119.4 28.3655 119.676 27.9047 119.884 27.3979H124.894C124.572 28.734 124.042 29.8859 123.305 30.8534C121.623 33.1571 119.158 34.3089 115.91 34.3089C113.238 34.3089 110.98 33.4105 109.137 31.6136ZM124.547 16.1676H129.558L133.013 29.644H134.396L138.197 16.1676H143.207L136.123 40.356H131.113L133.013 33.7906H129.212L124.547 16.1676Z" fill="#1A1A1A"/>
<path d="M143.65 33.5141C143.12 32.9843 142.855 32.3278 142.855 31.5445C142.855 30.7613 143.12 30.1047 143.65 29.5749C144.179 29.045 144.836 28.7801 145.619 28.7801C146.402 28.7801 147.059 29.045 147.589 29.5749C148.119 30.1047 148.384 30.7613 148.384 31.5445C148.384 32.3278 148.119 32.9843 147.589 33.5141C147.059 34.044 146.402 34.3089 145.619 34.3089C144.836 34.3089 144.179 34.044 143.65 33.5141Z" fill="#A2A2A2"/>
<path d="M-3.05176e-05 29.1988L18.8286 8.62183V24.4503H32.8294L13.518 45.5549V29.1988H-3.05176e-05Z" fill="#A2A2A2"/>
<path d="M0 24.509L18.8286 3.93195V19.7604H32.8294L13.518 40.8651V24.509H0Z" fill="#1A1A1A"/>
</svg>
